<?xml version="1.0" encoding="utf-8"?>
<svg version="1.1" id="Layer_1" xmlns="http://www.w3.org/2000/svg" xmlns:xlink="http://www.w3.org/1999/xlink" x="0px" y="0px"
	 viewBox="0 0 96.7 93.3" style="enable-background:new 0 0 96.7 93.3;" xml:space="preserve">
<style type="text/css">
	.st0{fill:#FFFFFF;}
</style>
<path class="st0" d="M67.5,42.2c-0.1-3.2-1-6.3-2.7-9.1L50.4,8c-1.1-1.9-1.9-3.9-2.3-6l-0.6,1c-3.6,6.2-3.6,13.8,0,20L59,43
	c3.6,6.2,3.6,13.8,0,20l-0.6,1c-0.4-2.1-1.2-4.1-2.3-6L45.6,39.7L38.8,28c-1.1-1.9-1.9-3.9-2.3-6l-0.6,1c-3.6,6.2-3.6,13.8,0,19.9
	l0,0L47.5,63c3.6,6.2,3.6,13.8,0,20l-0.6,1c-0.4-2.1-1.2-4.1-2.3-6L30.2,53c-1.9-3.4-2.8-7.1-2.7-10.9c-15.4,4-26.1,12.6-26.1,22.5
	c0,13.8,20.6,25,46.1,25c25.4,0,46.1-11.2,46.1-25C93.6,54.8,82.9,46.2,67.5,42.2z"/>
</svg>
